<svg width="214" height="37" viewBox="0 0 214 37" fill="none" xmlns="http://www.w3.org/2000/svg">
<path d="M16.616 36.72C14.376 36.72 12.272 36.328 10.304 35.544C8.352 34.744 6.632 33.576 5.144 32.04C3.672 30.504 2.52 28.624 1.688 26.4C0.856 24.16 0.44 21.6 0.44 18.72C0.44 14.944 1.144 11.72 2.552 9.048C3.96 6.36 5.888 4.304 8.336 2.88C10.784 1.44 13.544 0.719999 16.616 0.719999C20.872 0.719999 24.24 1.712 26.72 3.696C29.216 5.664 30.904 8.432 31.784 12L25.88 12.936C25.224 10.888 24.152 9.256 22.664 8.04C21.176 6.808 19.28 6.192 16.976 6.192C14.656 6.16 12.728 6.664 11.192 7.704C9.656 8.744 8.496 10.208 7.712 12.096C6.944 13.984 6.56 16.192 6.56 18.72C6.56 21.248 6.944 23.448 7.712 25.32C8.48 27.176 9.632 28.624 11.168 29.664C12.72 30.704 14.656 31.24 16.976 31.272C18.72 31.288 20.248 30.976 21.56 30.336C22.872 29.68 23.944 28.696 24.776 27.384C25.608 26.056 26.168 24.4 26.456 22.416H20.36V17.88H32.6C32.632 18.136 32.656 18.512 32.672 19.008C32.688 19.504 32.696 19.8 32.696 19.896C32.696 23.16 32.048 26.064 30.752 28.608C29.472 31.136 27.632 33.12 25.232 34.56C22.832 36 19.96 36.72 16.616 36.72ZM48.9643 36.72C46.3723 36.72 44.1083 36.136 42.1723 34.968C40.2363 33.8 38.7323 32.192 37.6603 30.144C36.6043 28.08 36.0763 25.712 36.0763 23.04C36.0763 20.32 36.6203 17.936 37.7083 15.888C38.7963 13.84 40.3083 12.24 42.2443 11.088C44.1803 9.936 46.4203 9.36 48.9643 9.36C51.5723 9.36 53.8443 9.944 55.7803 11.112C57.7163 12.28 59.2203 13.896 60.2923 15.96C61.3643 18.008 61.9003 20.368 61.9003 23.04C61.9003 25.728 61.3563 28.104 60.2683 30.168C59.1963 32.216 57.6923 33.824 55.7563 34.992C53.8203 36.144 51.5563 36.72 48.9643 36.72ZM48.9643 31.296C51.2683 31.296 52.9803 30.528 54.1003 28.992C55.2203 27.456 55.7803 25.472 55.7803 23.04C55.7803 20.528 55.2123 18.528 54.0763 17.04C52.9403 15.536 51.2363 14.784 48.9643 14.784C47.4123 14.784 46.1323 15.136 45.1243 15.84C44.1323 16.528 43.3963 17.496 42.9163 18.744C42.4363 19.976 42.1963 21.408 42.1963 23.04C42.1963 25.552 42.7643 27.56 43.9003 29.064C45.0523 30.552 46.7403 31.296 48.9643 31.296ZM81.8041 36.72C78.3481 36.72 75.3881 35.968 72.9241 34.464C70.4601 32.944 68.5641 30.832 67.2361 28.128C65.9241 25.424 65.2681 22.288 65.2681 18.72C65.2681 15.152 65.9241 12.016 67.2361 9.312C68.5641 6.608 70.4601 4.504 72.9241 3C75.3881 1.48 78.3481 0.719999 81.8041 0.719999C85.2601 0.719999 88.2201 1.48 90.6841 3C93.1641 4.504 95.0601 6.608 96.3721 9.312C97.7001 12.016 98.3641 15.152 98.3641 18.72C98.3641 22.288 97.7001 25.424 96.3721 28.128C95.0601 30.832 93.1641 32.944 90.6841 34.464C88.2201 35.968 85.2601 36.72 81.8041 36.72ZM81.8041 31.272C84.1241 31.288 86.0521 30.776 87.5881 29.736C89.1401 28.696 90.3001 27.232 91.0681 25.344C91.8521 23.456 92.2441 21.248 92.2441 18.72C92.2441 16.192 91.8521 14 91.0681 12.144C90.3001 10.272 89.1401 8.816 87.5881 7.776C86.0521 6.736 84.1241 6.2 81.8041 6.168C79.4841 6.152 77.5561 6.664 76.0201 7.704C74.4841 8.744 73.3241 10.208 72.5401 12.096C71.7721 13.984 71.3881 16.192 71.3881 18.72C71.3881 21.248 71.7721 23.448 72.5401 25.32C73.3081 27.176 74.4601 28.624 75.9961 29.664C77.5481 30.704 79.4841 31.24 81.8041 31.272ZM121.069 36V23.52C121.069 22.704 121.013 21.8 120.901 20.808C120.789 19.816 120.525 18.864 120.109 17.952C119.709 17.024 119.101 16.264 118.285 15.672C117.485 15.08 116.397 14.784 115.021 14.784C114.285 14.784 113.557 14.904 112.837 15.144C112.117 15.384 111.461 15.8 110.869 16.392C110.293 16.968 109.829 17.768 109.477 18.792C109.125 19.8 108.949 21.096 108.949 22.68L105.517 21.216C105.517 19.008 105.941 17.008 106.789 15.216C107.653 13.424 108.917 12 110.581 10.944C112.245 9.872 114.293 9.336 116.725 9.336C118.645 9.336 120.229 9.656 121.477 10.296C122.725 10.936 123.717 11.752 124.453 12.744C125.189 13.736 125.733 14.792 126.085 15.912C126.437 17.032 126.661 18.096 126.757 19.104C126.869 20.096 126.925 20.904 126.925 21.528V36H121.069ZM103.093 36V10.08H108.253V18.12H108.949V36H103.093ZM133.668 36V0.719999H139.452V36H133.668ZM147.121 6.144V0.839999H152.905V6.144H147.121ZM147.121 36V10.08H152.905V36H147.121ZM178.022 36V23.52C178.022 22.704 177.966 21.8 177.854 20.808C177.742 19.816 177.478 18.864 177.062 17.952C176.662 17.024 176.054 16.264 175.238 15.672C174.438 15.08 173.35 14.784 171.974 14.784C171.238 14.784 170.51 14.904 169.79 15.144C169.07 15.384 168.414 15.8 167.822 16.392C167.246 16.968 166.782 17.768 166.43 18.792C166.078 19.8 165.902 21.096 165.902 22.68L162.47 21.216C162.47 19.008 162.894 17.008 163.742 15.216C164.606 13.424 165.87 12 167.534 10.944C169.198 9.872 171.246 9.336 173.678 9.336C175.598 9.336 177.182 9.656 178.43 10.296C179.678 10.936 180.67 11.752 181.406 12.744C182.142 13.736 182.686 14.792 183.038 15.912C183.39 17.032 183.614 18.096 183.71 19.104C183.822 20.096 183.878 20.904 183.878 21.528V36H178.022ZM160.046 36V10.08H165.206V18.12H165.902V36H160.046ZM201.503 36.72C198.879 36.72 196.575 36.152 194.591 35.016C192.607 33.88 191.055 32.304 189.935 30.288C188.831 28.272 188.279 25.952 188.279 23.328C188.279 20.496 188.823 18.04 189.911 15.96C190.999 13.864 192.511 12.24 194.447 11.088C196.383 9.936 198.623 9.36 201.167 9.36C203.855 9.36 206.135 9.992 208.007 11.256C209.895 12.504 211.295 14.272 212.207 16.56C213.119 18.848 213.463 21.544 213.239 24.648H207.503V22.536C207.487 19.72 206.991 17.664 206.015 16.368C205.039 15.072 203.503 14.424 201.407 14.424C199.039 14.424 197.279 15.16 196.127 16.632C194.975 18.088 194.399 20.224 194.399 23.04C194.399 25.664 194.975 27.696 196.127 29.136C197.279 30.576 198.959 31.296 201.167 31.296C202.591 31.296 203.815 30.984 204.839 30.36C205.879 29.72 206.679 28.8 207.239 27.6L212.951 29.328C211.959 31.664 210.423 33.48 208.343 34.776C206.279 36.072 203.999 36.72 201.503 36.72ZM192.575 24.648V20.28H210.407V24.648H192.575Z" fill="#FF723A"/>
</svg>
